<?xml version="1.0" encoding="UTF-8"?>
<svg width="479px" height="252px" viewBox="0 0 479 252" version="1.1" xmlns="http://www.w3.org/2000/svg" xmlns:xlink="http://www.w3.org/1999/xlink">
    <!-- Generator: Sketch 57.1 (83088) - https://sketch.com -->
    <title>nby-lockup</title>
    <desc>Created with Sketch.</desc>
    <g id="(Production)" stroke="none" stroke-width="1" fill="none" fill-rule="evenodd">
        <path d="M1,116.128734 L1,1 L30.581658,1 L46.744832,43.2953042 C47.5580775,45.4329837 48.3458973,47.7233202 49.108315,50.1663825 C49.8707327,52.6094448 50.6331389,55.0270222 51.3955566,57.4191874 C52.1579743,59.8113525 52.8441399,62.1271372 53.454074,64.366611 C54.0640082,66.6060847 54.6231061,68.6419394 55.1313845,70.4742361 C54.5214504,62.4324895 53.8861118,54.8743789 53.2253499,47.7996777 C52.5645879,40.7249766 52.2342118,34.8973425 52.2342118,30.3166007 L52.2342118,1 L81.9683526,1 L81.9683526,116.128734 L52.2342118,116.128734 L36.680969,73.83343 C33.4279869,65.0791235 30.7849786,57.0374974 28.7518647,49.7083106 C29.3617989,57.7500573 29.8192426,64.7992041 30.1242097,70.8559627 C30.4291768,76.9127213 30.581658,82.2313916 30.581658,86.8121334 L30.581658,116.128734 L1,116.128734 Z M129.000817,116.128734 L98.046814,116.128734 L98.046814,1 L129.000817,1 L129.000817,116.128734 Z M229.402252,116.128734 L196.618456,116.128734 L175.270867,62.9923953 C175.474179,65.0282805 175.652074,67.0132389 175.804557,68.9473298 C175.957041,70.8814208 176.033281,72.8663791 176.033281,74.9022644 L176.033281,116.128734 L145.079278,116.128734 L145.079278,1 L176.033281,1 L176.033281,40.088801 C176.033281,41.8193034 175.957041,43.5243317 175.804557,45.2039371 C175.652074,46.8835424 175.474179,48.5885707 175.270867,50.3190731 L194.331214,1 L226.352596,1 L201.497904,56.5793889 L229.402252,116.128734 Z M238.314023,116.128734 L238.314023,1 L295.952511,1 L295.952511,28.0262413 L269.268026,28.0262413 L269.268026,44.8222105 L293.207821,44.8222105 L293.207821,70.932308 L269.268026,70.932308 L269.268026,88.4917303 L295.952511,88.4917303 L295.952511,116.128734 L238.314023,116.128734 Z M1,133.886288 L37.1384173,133.886288 C43.9493485,133.886288 49.8707037,134.70063 54.9026604,136.329338 C59.934617,137.958046 64.0770243,140.222934 67.3300064,143.124071 C70.5829885,146.025207 72.9972749,149.48616 74.5729381,153.507033 C76.1486013,157.527907 76.9364211,161.879546 76.9364211,166.562082 C76.9364211,180.915073 69.8206295,188.702217 55.5888328,189.923748 C63.8229438,191.14528 69.795126,193.817339 73.5055587,197.940006 C77.2159914,202.062674 79.0711799,208.093894 79.0711799,216.033846 C79.0711799,220.919971 78.2325331,225.398851 76.5552142,229.470621 C74.8778953,233.542392 72.5144359,237.028793 69.4647652,239.929929 C66.4150945,242.831066 62.7555445,245.070506 58.4860055,246.648317 C54.2164665,248.226128 49.5403749,249.015022 44.4575904,249.015022 L1,249.015022 L1,133.886288 Z M31.954003,223.973759 C32.5639371,224.075553 33.0976215,224.126449 33.5550721,224.126449 L34.6986929,224.126449 C38.5616091,224.126449 41.6366477,223.13397 43.9239007,221.148982 C46.2111537,219.163994 47.3547631,216.441038 47.3547631,212.980033 C47.3547631,209.519029 46.2111537,206.821521 43.9239007,204.88743 C41.6366477,202.953339 38.459955,201.986308 34.3937274,201.986308 L31.954003,201.986308 L31.954003,223.973759 Z M31.954003,178.624642 L34.0887618,178.624642 C37.8500224,178.624642 40.7979932,177.759404 42.9327627,176.028901 C45.0675322,174.298399 46.1349009,171.855373 46.1349009,168.699751 C46.1349009,162.083124 42.4753509,158.77486 35.1561412,158.77486 L33.936279,158.77486 C33.4280006,158.77486 32.7672485,158.825757 31.954003,158.927551 L31.954003,178.624642 Z M140.284542,249.015022 L109.178056,249.015022 L109.178056,200.306711 L80.6637778,133.886288 L112.990126,133.886288 L118.631988,150.987638 C119.750201,154.245054 120.741329,157.426077 121.605402,160.530802 C122.469476,163.635527 123.257296,166.612965 123.968885,169.463204 C124.680475,166.612965 125.442881,163.635527 126.256127,160.530802 C127.069373,157.426077 128.035087,154.245054 129.1533,150.987638 L134.795162,133.886288 L166.969027,133.886288 L140.284542,200.306711 L140.284542,249.015022 Z M272.317681,249.015022 L241.211196,249.015022 L241.211196,200.306711 L212.696917,133.886288 L245.023265,133.886288 L250.665128,150.987638 C251.78334,154.245054 252.774468,157.426077 253.638542,160.530802 C254.502615,163.635527 255.290435,166.612965 256.002025,169.463204 C256.713614,166.612965 257.476021,163.635527 258.289266,160.530802 C259.102512,157.426077 260.068226,154.245054 261.186439,150.987638 L266.828301,133.886288 L299.002167,133.886288 L272.317681,200.306711 L272.317681,249.015022 Z M386.747531,191.450655 C386.747531,200.306756 385.705576,208.399278 383.621635,215.728465 C381.537693,223.057652 378.564309,229.343353 374.701392,234.585757 C370.838476,239.828162 366.213212,243.874423 360.82546,246.724662 C355.437708,249.574902 349.49094,251 342.984975,251 C336.377356,251 330.405173,249.574902 325.06825,246.724662 C319.731326,243.874423 315.131475,239.828162 311.268559,234.585757 C307.405642,229.343353 304.432258,223.057652 302.348316,215.728465 C300.264375,208.399278 299.22242,200.306756 299.22242,191.450655 C299.22242,182.594554 300.264375,174.502032 302.348316,167.172845 C304.432258,159.843658 307.405642,153.557957 311.268559,148.315552 C315.131475,143.073148 319.731326,139.001438 325.06825,136.100302 C330.405173,133.199165 336.377356,131.748619 342.984975,131.748619 C349.49094,131.748619 355.437708,133.199165 360.82546,136.100302 C366.213212,139.001438 370.838476,143.073148 374.701392,148.315552 C378.564309,153.557957 381.537693,159.843658 383.621635,167.172845 C385.705576,174.502032 386.747531,182.594554 386.747531,191.450655 Z M354.573666,191.450655 C354.573666,181.576611 353.557125,173.993053 351.524011,168.699751 C349.490897,163.406449 346.64458,160.759838 342.984975,160.759838 C339.325371,160.759838 336.479054,163.406449 334.44594,168.699751 C332.412826,173.993053 331.396285,181.576611 331.396285,191.450655 C331.396285,201.324698 332.412826,208.882809 334.44594,214.125213 C336.479054,219.367618 339.325371,221.988781 342.984975,221.988781 C346.64458,221.988781 349.490897,219.367618 351.524011,214.125213 C353.557125,208.882809 354.573666,201.324698 354.573666,191.450655 Z M478,133.886288 L478,210.842365 C478,217.458992 477.059699,223.261177 475.179069,228.249096 C473.298438,233.237015 470.65543,237.410517 467.249964,240.769728 C463.844499,244.128938 459.752919,246.673757 454.975101,248.404259 C450.197284,250.134762 444.911267,251 439.116893,251 C433.322518,251 428.011088,250.134762 423.182443,248.404259 C418.353798,246.673757 414.236804,244.128938 410.831338,240.769728 C407.425873,237.410517 404.757451,233.237015 402.825993,228.249096 C400.894535,223.261177 399.92882,217.458992 399.92882,210.842365 L399.92882,133.886288 L431.035306,133.886288 L431.035306,208.093933 C431.035306,213.183646 431.645231,216.77184 432.865099,218.858623 C434.084967,220.945405 436.168878,221.988781 439.116893,221.988781 C442.064908,221.988781 444.097991,220.945405 445.216204,218.858623 C446.334416,216.77184 446.893514,213.183646 446.893514,208.093933 L446.893514,133.886288 L478,133.886288 Z" id="nby-lockup" stroke="#000000" fill-rule="nonzero" transform="translate(239.500000, 126.000000) rotate(-360.000000) translate(-239.500000, -126.000000) "></path>
    </g>
</svg>