<svg id="Layer_1" data-name="Layer 1" xmlns="http://www.w3.org/2000/svg" viewBox="0 0 152 77">
    <defs>
        <style>.cls-1{fill:#000105;}</style>
    </defs>
    <title>logo-nikesb</title>
    <path class="cls-1" d="M38.16,20.48V36.41h8.9l14.19-35H52.72L46.86,15.63V1.36h-9.4L23.22,36.41l8.51,0Z" />
    <polygon class="cls-1" points="59.88 36.4 74.08 1.35 65.37 1.36 51.18 36.41 59.88 36.4" />
    <path class="cls-1" d="M127.78,27.37,108,32.69l1.2-3.06H98.9l3.21-8.33h8.33l2.5-6.23h-8.25c0-.08,3.14-7.54,3.14-7.54h8.36l2.51-6.21H101.6L87.72,35.59l-2-17.2,15.66-17H92.05L82.7,11.18l4-9.84H78.09l-14.21,35h8.66l5.52-14s.1,1,1.39,14l8,0h6.88L81.14,39.79C66.34,43.65,55.65,46.43,48.72,48c-15.79,3.7-20.17,3.85-24.62.87-3.47-2.32-5-6.27-4.73-12.08a26.52,26.52,0,0,1,1.46-6.91,36.24,36.24,0,0,1,1.73-4.22c.19-.41.53-1.06.53-1.06s-1.55,1.44-2.87,2.86c-.78.83-1.09,1.12-3.22,3.53-2.35,2.66-5,5.64-7.7,9.37C5.62,45.43,2.43,50.59,1.45,57c-.51,3.4,0,7.88,1.14,10.22,6.23,12.25,18.91,9.63,43.27-.39C59.41,61.27,151,20.53,151,20.53Z" />
    <path class="cls-1" d="M108.14,59.44c-.48-1.08-2.29-2.34-2.84-2.77l-3.59-2.51c-1.25-1.09-1.27-1.15-.5-3.09a3.23,3.23,0,0,1,3.28-2.29c2.23,0,1.81,1,1.25,2.43l-.83,2.07h6.64l1.24-3.09c1.9-4.76-1.86-6.46-6-6.46-3.91,0-6.11.54-7.7,1.52-2.6,1.61-3.77,4.19-4.61,6.29C93.38,54.28,93.06,56,95.6,58c0,0,1.32.94,4.51,3,1.45.87,1.43,1.62.66,3.55-1,2.51-1.31,3.29-3.84,3.29s-2-1.23-1.35-2.91l1.29-3.23H90.18l-1.76,4.42C86.64,70.62,88.92,73,95,73c4.49,0,6.94-.53,9.11-2.65,1.68-1.63,2.43-3.47,3.44-6C108.46,62.07,108.69,60.67,108.14,59.44Z" />
    <path class="cls-1" d="M132.14,45.19c-1-.65-2.37-.79-4.7-.79h-9.08L107.23,72.3h10.48a13,13,0,0,0,5.72-.93c2.89-1.37,3.51-3.3,4.5-5.41l1-2.45c1.12-2.81,1.42-4.37-1-5.16,2.91-.62,3.66-2,4.79-4.85l.9-2.76C134.39,48.53,134.28,46.63,132.14,45.19Zm-9.55,18.12-.6,1.51c-.92,2.29-1.64,2.53-4.09,2.53h-2.16l2.6-6.5h2.25C123.07,60.85,123.41,61.27,122.59,63.31ZM127.12,52l-.57,1.44c-.81,2-2.06,2.31-4.18,2.31h-2l2.54-6.28h1.5C126.86,49.42,128,49.59,127.12,52Z" />
</svg>